# File created by Blade
# Date/Time:  Thu Sep 25 15:55:53 2014
# Frame Rate: 120.000 fps
#------------------------------------------------------
:FULLY-SPECIFIED
:DEGREES
252
root -1.167900 34.098922 2.065013 -20.471733 -8.222034 41.735480
Spine 18.174772 30.118431 -29.509686
Head -14.187285 -13.389111 1.605979
LeftShoulder -2.720126 20.706412 13.774389
LeftArm 28.037503 5.534492 -45.291166
LeftForeArm 7.664823 -0.000000 14.927990
LeftHand -21.774358 -0.000000 -6.373556
LeftHandThumb1 -26.253704 0.000000 33.147579
RightShoulder -2.158144 21.856890 -24.366783
RightArm 32.637646 1.264102 42.004146
RightForeArm -28.269640 -0.000000 38.399432
RightHand -0.538189 -0.000000 -1.676193
RightHandThumb1 -24.326973 -0.000000 -32.862282
LeftUpLeg -108.620272 38.324452 3.424758
LeftLeg 8.714807 -0.000000 -0.000000
LeftFoot 31.750541 38.878935 -3.703549
LeftToeBase 18.468456 -0.000000 -0.000000
RightUpLeg -0.432653 -6.381942 -45.118444
RightLeg 29.243626 -0.000000 -0.000000
RightFoot -22.401047 6.565259 -8.806489
RightToeBase -2.710319 -0.000000 0.000000
253
root -1.173069 34.076894 2.204558 -20.184725 -8.166583 41.099619
Spine 18.194910 29.457365 -29.403822
Head -14.924531 -13.346992 2.265025
LeftShoulder -2.420765 20.779604 14.393527
LeftArm 28.066767 5.021122 -45.466097
LeftForeArm 7.858419 -0.000000 15.138679
LeftHand -21.940854 -0.000000 -6.126266
LeftHandThumb1 -26.253704 0.000000 33.147579
RightShoulder -1.896206 21.742484 -24.217589
RightArm 32.867241 0.939460 41.357518
RightForeArm -28.479281 -0.000000 39.186235
RightHand -0.555305 0.000000 -2.039781
RightHandThumb1 -24.326973 -0.000000 -32.862282
LeftUpLeg -112.400566 39.453853 2.397849
LeftLeg 8.541805 -0.000000 -0.000000
LeftFoot 32.433800 38.590483 -2.687578
LeftToeBase 18.373265 -0.000000 -0.000000
RightUpLeg -0.110131 -6.579150 -44.558552
RightLeg 29.217773 -0.000000 -0.000000
RightFoot -22.462246 6.226650 -8.917162
RightToeBase -2.732218 -0.000000 0.000000
254
root -1.181308 34.055104 2.343689 -19.894782 -7.985650 40.362153
Spine 18.334742 28.813480 -29.130652
Head -15.677698 -13.489952 2.951925
LeftShoulder -2.002933 20.745986 15.031379
LeftArm 28.069038 4.633825 -45.617296
LeftForeArm 8.032772 -0.000000 15.224467
LeftHand -21.943590 -0.000000 -5.797117
LeftHandThumb1 -26.253704 0.000000 33.147579
RightShoulder -1.782568 21.691681 -24.152524
RightArm 32.886212 0.453583 40.551038
RightForeArm -28.488899 -0.000000 39.945941
RightHand -0.783288 -0.000000 -2.251760
RightHandThumb1 -24.326973 -0.000000 -32.862282
LeftUpLeg -116.219609 40.082032 0.951701
LeftLeg 8.197972 -0.000000 -0.000000
LeftFoot 33.176386 38.364575 -1.505685
LeftToeBase 17.083855 -0.000000 -0.000000
RightUpLeg 0.359069 -6.868640 -43.937849
RightLeg 29.134346 -0.000000 -0.000000
RightFoot -22.498587 5.865025 -8.941370
RightToeBase -2.895656 -0.000000 0.000000
255
root -1.194206 34.030633 2.464122 -19.547249 -7.665408 39.580050
Spine 18.536045 28.002369 -28.826036
Head -16.488708 -13.552434 3.468859
LeftShoulder -1.612856 20.751175 15.549589
LeftArm 28.028362 4.224422 -45.632117
LeftForeArm 8.126885 -0.000000 15.406669
LeftHand -22.115417 -0.000000 -5.412492
LeftHandThumb1 -26.253704 0.000000 33.147579
RightShoulder -1.659857 21.790516 -24.210126
RightArm 32.668778 -0.017680 39.840780
RightForeArm -28.351258 -0.000000 40.613621
RightHand -1.181985 -0.000000 -2.689776
RightHandThumb1 -24.326973 -0.000000 -32.862282
LeftUpLeg -120.149626 40.085857 -1.114029
LeftLeg 7.667125 -0.000000 -0.000000
LeftFoot 33.612676 37.759648 -0.737828
LeftToeBase 16.431361 -0.000000 -0.000000
RightUpLeg 0.845762 -7.191529 -43.260722
RightLeg 29.092804 -0.000000 -0.000000
RightFoot -22.556752 5.318883 -8.941185
RightToeBase -2.882870 -0.000000 0.000000
256
root -1.212952 33.995337 2.569634 -19.095988 -7.271105 38.724065
Spine 18.667946 26.902601 -28.485332
Head -17.251997 -13.430417 3.745957
LeftShoulder -1.448528 20.831072 15.835569
LeftArm 27.993236 3.800970 -45.530189
LeftForeArm 8.174777 -0.000000 15.549862
LeftHand -22.248656 0.000000 -4.999277
LeftHandThumb1 -26.253704 0.000000 33.147579
RightShoulder -1.503596 21.661008 -24.238406
RightArm 32.701329 -0.322914 39.013392
RightForeArm -28.168561 0.000000 41.203368
RightHand -1.275558 -0.000000 -2.833241
RightHandThumb1 -24.326973 -0.000000 -32.862282
LeftUpLeg -124.132834 39.465083 -3.586054
LeftLeg 6.978653 -0.000000 -0.000000
LeftFoot 34.059879 37.050866 -0.329788
LeftToeBase 16.622403 -0.000000 -0.000000
RightUpLeg 1.290986 -7.610678 -42.481270
RightLeg 29.058148 -0.000000 -0.000000
RightFoot -22.623893 4.587000 -9.137041
RightToeBase -3.131655 -0.000000 0.000000
257
root -1.232538 33.957332 2.645371 -18.633501 -6.721555 37.813843
Spine 18.962277 26.033321 -27.935527
Head -17.921572 -13.705675 4.053193
LeftShoulder -0.904823 20.712417 16.243134
LeftArm 27.968270 3.361884 -45.521958
LeftForeArm 8.205698 -0.000000 15.598283
LeftHand -22.382026 -0.000000 -4.475483
LeftHandThumb1 -26.253704 0.000000 33.147579
RightShoulder -1.462482 22.335958 -24.637365
RightArm 31.580890 -1.043893 38.462799
RightForeArm -28.103048 -0.000000 41.887730
RightHand -1.396577 -0.000000 -3.124087
RightHandThumb1 -24.326973 -0.000000 -32.862282
LeftUpLeg -127.778093 38.078750 -6.249002
LeftLeg 6.000732 -0.000000 -0.000000
LeftFoot 34.968587 36.035891 0.543043
LeftToeBase 16.913531 -0.000000 -0.000000
RightUpLeg 1.770120 -8.086494 -41.664431
RightLeg 29.057202 -0.000000 -0.000000
RightFoot -22.683506 3.822551 -9.279540
RightToeBase -3.181727 -0.000000 0.000000
258
root -1.269234 33.909221 2.709738 -18.129697 -6.168025 36.896654
Spine 19.113727 24.402016 -27.564391
Head -18.481793 -13.153961 3.774418
LeftShoulder -1.336770 20.760215 15.993974
LeftArm 28.017012 3.139870 -45.052016
LeftForeArm 7.716474 0.000000 15.560071
LeftHand -22.446408 -0.000000 -3.995367
LeftHandThumb1 -26.253704 0.000000 33.147579
RightShoulder -0.835499 22.954958 -24.887911
RightArm 30.872905 -1.540898 37.943121
RightForeArm -28.159634 -0.000000 42.359000
RightHand -0.949317 0.000000 -3.202598
RightHandThumb1 -24.326973 -0.000000 -32.862282
LeftUpLeg -130.975109 36.327493 -8.791383
LeftLeg 5.053691 -0.000000 -0.000000
LeftFoot 35.586663 34.784141 0.934956
LeftToeBase 16.834085 -0.000000 -0.000000
RightUpLeg 2.184043 -8.484753 -40.740473
RightLeg 29.049501 -0.000000 -0.000000
RightFoot -22.796642 2.852505 -9.587165
RightToeBase -3.261073 -0.000000 0.000000
259
root -1.297931 33.860163 2.743897 -17.617707 -5.536548 36.067711
Spine 19.300709 23.210939 -27.148696
Head -18.894640 -13.100710 3.618757
LeftShoulder -1.269179 20.676277 16.061974
LeftArm 28.110891 2.847685 -44.836010
LeftForeArm 7.412696 -0.000000 15.505289
LeftHand -22.502869 0.000000 -3.314035
LeftHandThumb1 -26.253704 0.000000 33.147579
RightShoulder -0.430875 23.501465 -25.185087
RightArm 29.748425 -1.871262 37.372263
RightForeArm -28.267119 -0.000000 42.963903
RightHand -1.013337 0.000000 -2.985897
RightHandThumb1 -24.326973 -0.000000 -32.862282
LeftUpLeg -133.383751 34.393954 -10.913387
LeftLeg 4.131899 -0.000000 -0.000000
LeftFoot 35.985286 33.471142 1.202995
LeftToeBase 16.904206 -0.000000 -0.000000
RightUpLeg 2.496172 -8.886729 -39.918759
RightLeg 29.121869 -0.000000 -0.000000
RightFoot -22.887573 1.948342 -9.770360
RightToeBase -3.445216 -0.000000 0.000000
260
root -1.325466 33.807262 2.757799 -17.118356 -4.876194 35.334063
Spine 19.529155 22.481501 -26.727493
Head -19.335404 -13.453900 3.725321
LeftShoulder -0.900560 20.488213 16.339566
LeftArm 28.334575 2.413107 -44.789004
LeftForeArm 7.255000 -0.000000 15.570048
LeftHand -22.766537 0.000000 -2.599959
LeftHandThumb1 -26.253704 0.000000 33.147579
RightShoulder -0.453050 23.571320 -25.450062
RightArm 28.857171 -1.985100 36.511923
RightForeArm -28.233591 -0.000000 43.314577
RightHand -1.175756 -0.000000 -2.948769
RightHandThumb1 -24.326973 -0.000000 -32.862282
LeftUpLeg -134.950355 32.639224 -12.387940
LeftLeg 3.311860 -0.000000 -0.000000
LeftFoot 36.380779 32.605067 1.182315
LeftToeBase 16.906934 -0.000000 -0.000000
RightUpLeg 2.717354 -9.186083 -39.168876
RightLeg 29.262607 -0.000000 -0.000000
RightFoot -22.981114 1.100722 -9.975358
RightToeBase -3.711020 -0.000000 0.000000
261
root -1.364453 33.749800 2.762822 -16.648172 -4.247832 34.699553
Spine 19.700643 22.044203 -26.415087
Head -19.679407 -13.869462 3.995444
LeftShoulder -0.520466 20.098026 16.759369
LeftArm 28.563326 1.947541 -44.945260
LeftForeArm 7.441543 0.000000 15.736510
LeftHand -23.065155 -0.000000 -1.936921
LeftHandThumb1 -26.253704 0.000000 33.147579
RightShoulder -0.723495 23.588987 -25.659619
RightArm 27.974562 -2.092969 35.646787
RightForeArm -28.413273 0.000000 43.640975
RightHand -1.290054 -0.000000 -2.501262
RightHandThumb1 -24.326973 -0.000000 -32.862282
LeftUpLeg -135.735505 31.464697 -13.097554
LeftLeg 2.829455 -0.000000 -0.000000
LeftFoot 36.598393 32.137480 0.759447
LeftToeBase 17.187615 -0.000000 -0.000000
RightUpLeg 2.880473 -9.398661 -38.489402
RightLeg 29.449709 -0.000000 -0.000000
RightFoot -23.113398 0.325080 -10.227913
RightToeBase -4.051643 -0.000000 0.000000
262
root -1.412172 33.693043 2.761007 -16.203859 -3.652738 34.152644
Spine 19.780858 21.689839 -26.199170
Head -19.812677 -14.257393 4.257377
LeftShoulder -0.270393 19.682278 17.110251
LeftArm 28.788790 1.414502 -45.177632
LeftForeArm 7.756310 -0.000000 16.030429
LeftHand -23.351212 -0.000000 -1.622120
LeftHandThumb1 -26.253704 0.000000 33.147579
RightShoulder -0.933066 23.509756 -25.757697
RightArm 27.142322 -2.109236 34.755989
RightForeArm -28.194696 -0.000000 43.705251
RightHand -1.475100 0.000000 -2.277737
RightHandThumb1 -24.326973 -0.000000 -32.862282
LeftUpLeg -135.838132 30.888424 -13.149354
LeftLeg 2.670057 -0.000000 -0.000000
LeftFoot 36.801925 31.995889 0.242280
LeftToeBase 17.504974 -0.000000 -0.000000
RightUpLeg 2.989449 -9.499400 -37.855422
RightLeg 29.678026 -0.000000 -0.000000
RightFoot -23.291488 -0.445708 -10.373288
RightToeBase -4.256073 -0.000000 0.000000
